<?xml version="1.0" encoding="utf-8"?>
<!-- Generator: Adobe Illustrator 15.0.0, SVG Export Plug-In  -->
<!DOCTYPE svg PUBLIC "-//W3C//DTD SVG 1.1//EN" "http://www.w3.org/Graphics/SVG/1.1/DTD/svg11.dtd" [
	<!ENTITY ns_flows "http://ns.adobe.com/Flows/1.0/">
]>
<svg version="1.1"
	 xmlns="http://www.w3.org/2000/svg" xmlns:xlink="http://www.w3.org/1999/xlink" xmlns:a="http://ns.adobe.com/AdobeSVGViewerExtensions/3.0/"
	 x="0px" y="0px" width="110px" height="108px" viewBox="0.5 -0.334 110 108" enable-background="new 0.5 -0.334 230 108"
	 xml:space="preserve">
<defs>
</defs>
<path fill="#666766" d="M11.884,74.665c-0.319,0.282-0.387,0.755-0.106,1.075c0.282,0.325,0.757,0.314,1.074,0.034
	c0.323-0.286,0.385-0.742,0.101-1.067C12.672,74.389,12.208,74.38,11.884,74.665z"/>
<path fill="#666766" d="M5.987,64.519l-3.525,1.566l0.558,1.266l3.417-1.517c0.631-0.277,1.171-0.367,1.39,0.131
	c0.222,0.5-0.205,0.841-0.838,1.123l-3.415,1.514l0.564,1.277l3.525-1.563c1.244-0.555,1.999-1.49,1.392-2.866
	C8.452,64.081,7.221,63.97,5.987,64.519z"/>
<polygon fill="#666766" points="7.327,61.144 3.721,62.091 3.715,62.067 6.985,59.774 6.621,58.337 0.688,59.839 0.98,60.999 
	4.634,60.047 4.644,60.07 1.322,62.37 1.694,63.848 7.629,62.349 "/>
<polygon fill="#666766" points="6.305,55.638 0.228,56.372 0.392,57.76 6.468,57.024 "/>
<polygon fill="#666766" points="6.147,51.744 0,50.265 0.024,51.771 4.517,52.573 4.517,52.591 0.048,53.443 0.074,55.012 
	6.173,53.503 "/>
<polygon fill="#666766" points="6.709,46.271 5.487,46.096 5.243,47.819 3.933,47.631 4.145,46.14 3.015,45.979 2.802,47.471 
	1.614,47.299 1.842,45.68 0.637,45.505 0.222,48.439 6.281,49.307 "/>
<path fill="#666766" d="M7.316,43.868l-2.34-0.687l0.115-0.392l2.571-0.104L8.07,41.28l-2.915,0.237
	c-0.021-0.423-0.37-1.012-1.244-1.268c-1.166-0.342-1.961,0.148-2.294,1.286l-0.548,1.89l5.874,1.722L7.316,43.868z M4.154,42.516
	L4.04,42.907l-1.484-0.437l0.12-0.416c0.09-0.31,0.332-0.642,0.927-0.469C4.136,41.742,4.262,42.141,4.154,42.516z"/>
<path fill="#666766" d="M4.463,38.672c0.925,0.429,1.533,0.1,2.107-0.37c0.458-0.372,0.759-0.547,1.121-0.38
	c0.352,0.162,0.455,0.497,0.314,0.806c-0.151,0.32-0.47,0.582-0.829,0.702l0.645,1.08c0.491-0.173,1.049-0.622,1.356-1.29
	c0.418-0.913,0.191-2.013-1.01-2.565c-0.966-0.446-1.673,0.038-2.159,0.434c-0.435,0.345-0.693,0.512-1.037,0.354
	c-0.408-0.191-0.45-0.532-0.319-0.815c0.122-0.269,0.371-0.478,0.676-0.565l-0.626-1.081c-0.495,0.163-0.934,0.56-1.213,1.167
	C3.118,36.956,3.229,38.103,4.463,38.672z"/>
<rect x="5.014" y="33.678" transform="matrix(-0.8577 -0.5142 0.5142 -0.8577 -2.6679 68.0116)" fill="#666766" width="6.127" height="1.394"/>
<path fill="#666766" d="M12.797,32.866c1.075-1.378,0.626-2.744-0.83-3.887c-1.483-1.163-2.91-1.278-3.992,0.105l-1.061,1.358
	l4.821,3.781L12.797,32.866z M8.73,30.087l0.209-0.266c0.411-0.527,1.202-0.499,2.17,0.257c0.933,0.733,1.154,1.499,0.744,2.026
	l-0.209,0.268L8.73,30.087z"/>
<path fill="#666766" d="M15.682,29.571l-0.579-0.989l1.005-0.94l0.945,0.646l1.059-0.986l-5.256-3.479l-1.27,1.186l3.081,5.508
	L15.682,29.571z M13.093,25.426l0.027-0.023l2.132,1.572l-0.763,0.714L13.093,25.426z"/>
<path fill="#666766" d="M20.214,25.844c1.451-0.972,1.451-2.41,0.424-3.954c-1.046-1.572-2.361-2.126-3.82-1.151l-1.43,0.959
	l3.395,5.104L20.214,25.844z M17.505,21.737c0.552-0.37,1.297-0.096,1.976,0.928c0.659,0.986,0.63,1.788,0.077,2.159l-0.28,0.188
	l-2.054-3.086L17.505,21.737z"/>
<polygon fill="#666766" points="26.084,22.632 25.559,21.51 23.987,22.254 23.423,21.054 24.783,20.412 24.297,19.376 
	22.938,20.018 22.424,18.93 23.901,18.23 23.382,17.123 20.709,18.389 23.318,23.94 "/>
<polygon fill="#666766" points="30.299,21.276 29.692,18.913 31.096,18.55 30.798,17.4 29.385,17.767 29.074,16.557 30.612,16.159 
	30.299,14.942 27.414,15.69 28.942,21.629 "/>
<polygon fill="#666766" points="35.829,20.326 35.67,19.097 33.948,19.319 33.779,18.002 35.271,17.813 35.125,16.678 
	33.634,16.866 33.482,15.674 35.1,15.467 34.945,14.254 32.015,14.63 32.796,20.713 "/>
<path fill="#666766" d="M41.287,17.284c0.042-1.887-0.718-3.1-2.474-3.138l-1.72-0.038l-0.132,6.134l1.719,0.038
	C40.428,20.317,41.25,19.139,41.287,17.284z M38.468,15.353l0.337,0.006c0.666,0.014,1.118,0.666,1.093,1.896
	c-0.025,1.188-0.507,1.828-1.171,1.813l-0.338-0.007L38.468,15.353z"/>
<polygon fill="#666766" points="45.538,19.794 43.826,19.502 44.048,18.194 45.533,18.448 45.726,17.322 44.241,17.068 
	44.445,15.881 46.056,16.156 46.26,14.951 43.345,14.453 42.314,20.5 45.331,21.015 "/>
<path fill="#666766" d="M48.442,19.359l0.389,0.124l0.032,2.578l1.39,0.45l-0.158-2.93c0.422-0.009,1.019-0.344,1.297-1.21
	c0.377-1.163-0.09-1.969-1.217-2.333l-1.869-0.604l-1.878,5.84l1.267,0.408L48.442,19.359z M49.218,16.95l0.412,0.133
	c0.305,0.101,0.63,0.352,0.439,0.942c-0.169,0.532-0.57,0.647-0.939,0.526l-0.387-0.125L49.218,16.95z"/>
<path fill="#666766" d="M52.079,23.384l0.732-0.881l1.221,0.632l-0.284,1.106l1.281,0.665l1.481-6.137l-1.545-0.796l-4.118,4.775
	L52.079,23.384z M55.091,19.536l0.028,0.019l-0.75,2.545L53.44,21.62L55.091,19.536z"/>
<polygon fill="#666766" points="58.177,27.146 58.913,26.1 57.576,25.155 60.361,21.187 59.216,20.377 55.694,25.396 "/>
<path fill="#666766" d="M61.517,30.262c1.195,1.278,2.61,1.041,3.96-0.225c1.378-1.291,1.711-2.684,0.509-3.968l-1.178-1.261
	l-4.466,4.193L61.517,30.262z M64.884,26.663l0.23,0.246c0.457,0.489,0.309,1.269-0.588,2.109c-0.865,0.812-1.656,0.914-2.114,0.426
	l-0.229-0.248L64.884,26.663z"/>
<polygon fill="#666766" points="65.638,35.542 66.656,34.839 65.667,33.406 66.756,32.652 67.611,33.893 68.551,33.241 
	67.695,32.002 68.683,31.316 69.614,32.665 70.616,31.97 68.934,29.533 63.897,33.02 "/>
<path fill="#666766" d="M67.649,39.453l2.05-0.881l0.235,0.55c0.356,0.836,1.272,1.441,2.531,0.902
	c1.342-0.576,1.369-1.682,1.021-2.484l-0.749-1.753l-5.626,2.417L67.649,39.453z M72.201,37.497l0.174,0.405
	c0.149,0.352,0.054,0.723-0.444,0.938c-0.485,0.207-0.875,0.044-1.026-0.307l-0.174-0.405L72.201,37.497z"/>
<polygon fill="#666766" points="69.673,45.514 70.864,45.185 70.402,43.505 71.678,43.151 72.078,44.604 73.176,44.301 
	72.779,42.845 73.939,42.526 74.37,44.104 75.545,43.779 74.762,40.922 68.861,42.556 "/>
<polygon fill="#666766" points="70.305,49.626 71.571,49.444 71.341,47.821 76.131,47.131 75.933,45.739 69.876,46.614 "/>
<path fill="#666766" d="M73.497,50.278c-1.946-0.008-3.258,0.887-3.281,2.342c-0.024,1.453,1.259,2.362,3.205,2.371
	c1.938,0.008,3.223-0.888,3.246-2.342C76.691,51.175,75.434,50.287,73.497,50.278z M73.443,53.571
	c-1.066-0.007-1.88-0.322-1.869-0.947c0.009-0.631,0.837-0.93,1.9-0.925c1.064,0.004,1.863,0.313,1.854,0.942
	C75.314,53.266,74.506,53.575,73.443,53.571z"/>
<polygon fill="#666766" points="75.019,57.317 70.129,56.58 69.927,57.928 74.819,58.664 74.652,59.777 75.814,59.953 
	76.347,56.377 75.185,56.205 "/>
<path fill="#666766" d="M69.424,60.359l1.007,0.545l-0.377,1.325l-1.141-0.063l-0.397,1.389l6.292,0.255l0.477-1.675l-5.479-3.113
	L69.424,60.359z M71.42,61.347l2.357,1.214l-0.008,0.034l-2.637-0.239L71.42,61.347z"/>
<path fill="#666766" d="M72.138,66.129c-0.931-0.425-1.535-0.093-2.111,0.378c-0.454,0.372-0.754,0.551-1.115,0.385
	c-0.354-0.159-0.459-0.494-0.318-0.805c0.146-0.32,0.466-0.587,0.826-0.706l-0.647-1.08c-0.491,0.176-1.048,0.63-1.354,1.3
	c-0.414,0.916-0.182,2.013,1.023,2.562c0.966,0.44,1.673-0.045,2.154-0.442c0.436-0.348,0.692-0.514,1.038-0.354
	c0.408,0.185,0.451,0.528,0.324,0.813c-0.125,0.269-0.371,0.48-0.676,0.568l0.63,1.075c0.493-0.163,0.931-0.565,1.208-1.17
	C73.485,67.841,73.372,66.692,72.138,66.129z"/>
<path fill="#666766" d="M63.711,74.564c-0.278,0.323-0.221,0.783,0.106,1.068c0.32,0.277,0.799,0.282,1.076-0.041
	c0.285-0.327,0.208-0.792-0.113-1.073C64.455,74.237,63.993,74.237,63.711,74.564z"/>
<path fill="#666766" d="M23.448,83.113c0.596-1.063,0.299-1.947-0.735-2.527l-1.708-0.965l-2.996,5.353l1.157,0.653l1.193-2.13
	l0.356,0.199l-0.478,2.534l1.272,0.717l0.425-2.901C22.351,84.12,23.006,83.91,23.448,83.113z M22.22,82.516
	c-0.271,0.482-0.686,0.514-1.026,0.325l-0.353-0.198l0.757-1.353l0.378,0.209C22.252,81.658,22.522,81.971,22.22,82.516z"/>
<path fill="#666766" d="M27.112,82.438c-0.833-0.316-1.969-0.13-2.449,1.142c-0.364,0.955,0.002,1.544,0.509,2.087
	c0.4,0.432,0.594,0.719,0.454,1.091c-0.14,0.366-0.464,0.49-0.781,0.372c-0.332-0.126-0.615-0.43-0.759-0.78l-1.029,0.718
	c0.205,0.478,0.688,1.006,1.376,1.267c0.935,0.36,2.011,0.058,2.484-1.183c0.379-0.996-0.15-1.669-0.577-2.129
	c-0.37-0.412-0.555-0.659-0.418-1.014c0.159-0.422,0.5-0.486,0.791-0.377c0.274,0.106,0.501,0.343,0.606,0.643l1.036-0.698
	C28.158,83.089,27.735,82.678,27.112,82.438z"/>
<rect x="28.324" y="86.667" transform="matrix(0.9675 0.253 -0.253 0.9675 23.0097 -4.5397)" fill="#666766" width="1.659" height="1.03"/>
<path fill="#666766" d="M33.808,84.307l-1.817-0.258l-0.858,6.079l2.012,0.281c0.866,0.121,1.86-0.187,2.044-1.479
	c0.121-0.849-0.311-1.384-0.757-1.568l0.001-0.019c0.45-0.137,0.842-0.514,0.943-1.225C35.561,84.808,34.56,84.413,33.808,84.307z
	 M33.903,88.618c-0.068,0.479-0.418,0.676-0.819,0.616l-0.516-0.071l0.208-1.476l0.498,0.071
	C33.625,87.805,33.982,88.077,33.903,88.618z M34.138,86.172c-0.068,0.48-0.413,0.626-0.747,0.579l-0.471-0.065l0.186-1.313
	l0.462,0.064C33.917,85.486,34.202,85.702,34.138,86.172z"/>
<path fill="#666766" d="M40.782,86.424c-0.018-1.221-0.717-1.832-1.899-1.812l-1.962,0.031l0.082,6.134l1.33-0.021l-0.03-2.444
	l0.405-0.009l0.853,2.432l1.461-0.024l-1.082-2.72C40.334,87.845,40.795,87.336,40.782,86.424z M38.692,87.327l-0.407,0.006
	l-0.021-1.551l0.434-0.009c0.318-0.004,0.711,0.126,0.721,0.753C39.425,87.079,39.083,87.321,38.692,87.327z"/>
<path fill="#666766" d="M43.019,84.279l-0.396,6.297l1.361-0.24l0.055-1.144l1.351-0.239l0.442,1.056l1.422-0.251l-2.525-5.783
	L43.019,84.279z M44.002,88.105l0.057-2.659l0.034-0.004l0.94,2.483L44.002,88.105z"/>
<path fill="#666766" d="M49.736,85.186c-0.546-0.079-0.844-0.151-0.967-0.513c-0.141-0.427,0.078-0.695,0.372-0.792
	c0.28-0.097,0.604-0.059,0.878,0.105l0.352-1.2c-0.458-0.245-1.049-0.293-1.68-0.079c-0.843,0.283-1.6,1.152-1.167,2.441
	c0.325,0.967,0.984,1.188,1.719,1.285c0.583,0.076,0.917,0.175,1.044,0.554c0.125,0.369-0.048,0.673-0.366,0.782
	c-0.338,0.114-0.747,0.059-1.082-0.117l-0.34,1.211c0.463,0.239,1.174,0.336,1.869,0.102c0.949-0.321,1.589-1.241,1.168-2.499
	C51.196,85.455,50.357,85.271,49.736,85.186z"/>
<rect x="49.927" y="83.749" transform="matrix(0.4183 0.9083 -0.9083 0.4183 107.525 0.9828)" fill="#666766" width="6.137" height="1.391"/>
<polygon fill="#666766" points="57.154,84.265 54.694,80.086 53.487,80.804 56.599,86.082 59.211,84.534 58.56,83.428 "/>
<path fill="#666766" d="M66.175,44.397l-3.547-0.185c0.06-0.371,0.094-0.741,0.094-1.115c0-0.56-0.041-1.124-0.12-1.681
	c-0.083-0.603-0.216-1.18-0.383-1.731l2.011-0.245c-2.731-5.432-7.115-9.883-12.49-12.703L41.063,39.46
	c-0.011-0.451-0.047-0.91-0.12-1.364l-0.021-0.131l-0.012-0.013c-0.029-0.169-0.068-0.338-0.106-0.505l6.424-12.609
	c-2.822-0.914-5.833-1.41-8.96-1.41c-3.129,0-6.142,0.498-8.966,1.414l6.5,12.753c-0.296,0.424-0.559,0.867-0.783,1.331
	L24.791,26.74c-5.372,2.818-9.754,7.271-12.483,12.698l7.81,0.959l-1.227,3.553l-8.526,0.447c-0.74,2.563-1.137,5.271-1.137,8.075
	c0,3.347,0.564,6.558,1.609,9.551l14.285-10.002l-0.25,0.331l-0.676,0.899h1.124h1.709h0.229l-4.111,3.835h-1.884h-0.591l0.03,0.587
	c0.024,0.524,0.077,1.041,0.147,1.552l-7.94,7.403c0.533,0.949,1.119,1.862,1.749,2.743c0.792,0.486,1.725,0.775,2.725,0.775
	c1.709,0,3.22-0.828,4.173-2.094c0.95,1.274,2.467,2.101,4.179,2.101c1.71,0,3.22-0.824,4.174-2.094
	c0.953,1.275,2.465,2.104,4.179,2.104c1.709,0,3.222-0.827,4.173-2.093c0.951,1.272,2.47,2.102,4.179,2.102
	c1.715,0,3.229-0.829,4.182-2.102c0.953,1.269,2.464,2.093,4.176,2.093s3.226-0.829,4.181-2.104c0.95,1.27,2.463,2.094,4.169,2.094
	c1.004,0,1.936-0.288,2.729-0.776c0.636-0.88,1.223-1.8,1.754-2.749l-7.941-7.403c0.071-0.511,0.123-1.027,0.148-1.552l0.031-0.587
	h-0.589h-1.884l-4.099-3.822h3.47h0.426l12.509,8.759c1.042-2.993,1.611-6.204,1.611-9.551
	C67.312,49.668,66.916,46.961,66.175,44.397z M44.516,41.86c-0.042,0.414-0.071,0.827-0.071,1.237c0,0.053,0.004,0.108,0.006,0.161
	l-2.018-0.105c0-0.003,0-0.008,0-0.01c0-0.34-0.021-0.682-0.057-1.021L44.516,41.86z M46.444,48.543
	c0.566,0.787,1.211,1.514,1.887,2.141c-0.753-0.022-1.493-0.153-2.208-0.379l-3.205-2.985v-0.437v-0.812L46.444,48.543z
	 M34.903,40.844c0-0.002,0.003-0.005,0.003-0.005c0.361-1.355,1.019-2.589,1.912-3.622c-0.091,0.146-0.146,0.315-0.146,0.499
	c0,0.332,0.174,0.624,0.431,0.792c0.373-0.566,0.679-1.175,0.917-1.818c0.029-0.079,0.055-0.159,0.081-0.24
	c0.05-0.146,0.097-0.294,0.138-0.441c0.178-0.621,0.292-1.271,0.331-1.939c0.004,0.003,0.008,0.008,0.009,0.013
	c0.916,1.171,1.549,2.571,1.799,4.101c0.004,0.005,0.007,0.009,0.008,0.013c0.079,0.479,0.124,0.972,0.124,1.476
	c0,0.172-0.009,0.338-0.018,0.508c-0.033,0.6-0.122,1.185-0.264,1.747c0.134,0.076,0.291,0.122,0.456,0.122
	c0.524,0,0.948-0.423,0.948-0.944c0-0.018-0.005-0.033-0.005-0.051c0.159,0.673,0.245,1.375,0.245,2.098
	c0,0.782-0.101,1.539-0.285,2.262h-1.633c0.347-0.615,0.591-1.292,0.73-2.003c0.025-0.15,0.045-0.287,0.063-0.418
	c-0.323,0.532-0.739,0.997-1.231,1.373c-0.009,0.023-0.017,0.047-0.023,0.063c-0.004-0.014-0.004-0.026-0.004-0.04
	c-0.046-0.318-0.071-0.646-0.071-0.979c0-0.474,0.174-1.541,0.174-1.541c0.068-0.39,0.112-0.789,0.112-1.199
	c0-1.285-0.363-2.479-0.983-3.504c-0.081,1.676-0.889,3.247-1.737,4.159c-0.163-0.238-0.315-0.485-0.45-0.744
	c-0.21,0.499-0.362,1.027-0.449,1.578l-0.001,0.002c-0.002,0.018-0.004,0.036-0.006,0.053c-0.008,0.039-0.016,0.076-0.021,0.116
	h0.005c-0.039,0.289-0.068,0.582-0.068,0.879c0,0.772,0.134,1.511,0.37,2.202H34.89c-0.186-0.723-0.285-1.479-0.285-2.262
	C34.604,42.354,34.707,41.582,34.903,40.844z M34.188,45.662h8.167v1.225h-8.167V45.662z M35.095,48.386v-1.042h6.353v1.042H35.095z
	 M40.717,48.841c-0.554,2.642-0.939,5.477-1.138,8.242h-2.615c-0.204-2.767-0.586-5.601-1.141-8.242H40.717z M34.098,42.116
	c-0.035,0.34-0.057,0.686-0.057,1.028c0,0.005,0,0.01,0,0.015l-6.521,0.339l-0.792-2.286L34.098,42.116z M33.621,46.071v0.812v0.434
	l-3.222,3.007c-0.344-0.422-0.65-0.874-0.912-1.359L33.621,46.071z M27.037,52.691H25.33l1.365-1.811l-0.68-2.492h-5.44l-0.68,2.492
	l1.356,1.811h-1.572h-0.125h-3.064h-0.517H14.32c1.585-0.968,2.845-2.414,3.592-4.131l5.382-15.607l5.384,15.61
	c0.75,1.716,2.006,3.158,3.59,4.126h-1.222h-0.944h-2.74h-0.326V52.691z M55.262,57.641c-0.231,4.688-2.361,8.87-5.635,11.807
	c-1.011-0.259-1.911-0.853-2.56-1.717l-0.451-0.598l-0.448,0.598c-0.892,1.192-2.249,1.878-3.729,1.878
	c-1.477,0-2.839-0.686-3.732-1.878l-0.447-0.598l-0.448,0.598c-0.893,1.186-2.25,1.868-3.724,1.868c-1.48,0-2.838-0.685-3.729-1.879
	l-0.448-0.597l-0.449,0.597c-0.649,0.866-1.55,1.461-2.563,1.722c-3.266-2.938-5.391-7.119-5.626-11.801H55.262z M58.576,51.249
	c1.11,0,2.171-0.209,3.149-0.587h0.148v2.042h-7.485v-0.02c-0.013,0.002-0.024,0.007-0.037,0.011c1.81-1.2,3.942-4.011,4.37-4.769
	c0.776-1.377,1.233-3.085,1.233-4.934c0-4.577-2.806-8.286-6.269-8.286c-0.018,0-0.067,0-0.115,0c-0.047,0-0.093,0-0.112,0
	c-3.465,0-6.272,3.709-6.272,8.286c0,1.849,0.462,3.556,1.235,4.934c0.426,0.759,2.562,3.568,4.371,4.769
	c-0.014-0.004-0.027-0.009-0.04-0.011v0.02h-7.486v-2.042h0.151c0.978,0.379,2.038,0.587,3.147,0.587
	c0.411,0,0.809-0.03,1.204-0.085c-2.577-1.926-4.77-5.172-4.77-8.058c0-0.552,0.041-1.086,0.115-1.604
	c0.639-4.54,3.983-7.742,8.443-7.755l0,0c0.004,0,0.01,0,0.014,0c0.006,0,0.01,0,0.015,0l0,0c4.459,0.013,7.805,3.215,8.444,7.755
	c0.071,0.518,0.113,1.052,0.113,1.604c0,2.886-2.192,6.132-4.766,8.058C57.769,51.219,58.168,51.249,58.576,51.249z M47.77,43.433
	c-0.008-0.148-0.015-0.299-0.015-0.449c0-0.525,0.042-1.039,0.115-1.535l11.122-1.364c0.27,0.896,0.418,1.876,0.418,2.901
	c0,0.357-0.021,0.707-0.056,1.054L47.77,43.433z"/>
<path fill="#666766" d="M55.726,75.678c-0.278-0.241-0.531-0.512-0.75-0.806c-0.953,1.275-2.468,2.104-4.18,2.104
	s-3.223-0.826-4.175-2.09c-0.952,1.27-2.466,2.098-4.182,2.098c-1.71,0-3.229-0.828-4.18-2.098c-0.95,1.266-2.463,2.09-4.173,2.09
	c-1.713,0-3.225-0.828-4.179-2.104c-0.954,1.271-2.463,2.095-4.174,2.095s-3.229-0.828-4.178-2.104
	c-0.222,0.296-0.473,0.565-0.752,0.806c4.861,3.669,10.907,5.844,17.465,5.844C44.822,81.512,50.867,79.339,55.726,75.678z
	 M38.261,75.281l0.685,0.788l0.004,1.223h-1.36l-0.01-1.223L38.261,75.281z M36.909,77.751h2.723v0.792h-2.723V77.751z M37.59,79
	h1.36v0.293l-0.319,0.292H37.91l-0.319-0.292V79z M37.908,80.04h0.727v0.34h-0.727V80.04z"/>
<path fill="#666766" d="M54.976,70.332c-0.953,1.274-2.468,2.104-4.18,2.104c-1.711,0-3.223-0.823-4.175-2.094
	c-0.952,1.274-2.466,2.101-4.182,2.101c-1.71,0-3.229-0.828-4.18-2.101c-0.95,1.271-2.463,2.094-4.173,2.094
	c-1.713,0-3.225-0.83-4.179-2.104c-0.954,1.269-2.463,2.094-4.174,2.094s-3.229-0.829-4.178-2.104
	c-0.954,1.272-2.464,2.097-4.173,2.097c-0.074,0-0.151-0.007-0.225-0.013c0.645,0.684,1.325,1.337,2.035,1.956
	c0.948-0.354,1.768-0.973,2.364-1.77c0.95,1.274,2.467,2.103,4.179,2.103c1.71,0,3.22-0.826,4.174-2.092
	c0.953,1.274,2.465,2.103,4.179,2.103c1.709,0,3.222-0.824,4.173-2.095c0.951,1.273,2.47,2.101,4.18,2.101
	c1.715,0,3.229-0.828,4.182-2.101c0.953,1.271,2.464,2.095,4.176,2.095s3.226-0.828,4.181-2.103
	c0.595,0.795,1.413,1.413,2.361,1.769c0.71-0.621,1.388-1.271,2.035-1.957c-0.074,0.004-0.149,0.012-0.227,0.012
	C57.44,72.426,55.926,71.601,54.976,70.332z"/>
<path fill="#666766" d="M21.007,46.574h4.577l-2.29-9.605L21.007,46.574z M24.306,43.667l-2.069,0.108l0.723-3.027l0.67,0.082
	L24.306,43.667z"/>

</svg>
